<?xml version="1.0" encoding="utf-8"?>
<!-- Generator: Adobe Illustrator 27.7.0, SVG Export Plug-In . SVG Version: 6.00 Build 0)  -->
<svg version="1.1" id="Layer_1" xmlns="http://www.w3.org/2000/svg" xmlns:xlink="http://www.w3.org/1999/xlink" x="0px" y="0px"
	 viewBox="0 0 1999.68 815.32" style="enable-background:new 0 0 1999.68 815.32;" xml:space="preserve">
<style type="text/css">
	.st0{fill:#1e3a8a;}
</style>
<g>
	<path class="st0" d="M583.56,292.2c0-160.89-130.89-291.77-291.77-291.77H0V800.6h121.71V584h170.08c6.95,0,13.96-0.3,21.54-0.94
		L466.04,800.6h148.72L435.83,545.73C526.19,494.16,583.56,396.73,583.56,292.2z M461.84,292.2c0,93.78-76.29,170.08-170.05,170.08
		H121.71V122.15h170.08C385.55,122.15,461.84,198.43,461.84,292.2z"/>
	<path class="st0" d="M1900.73,362.16c34.66-39.59,54.21-90.94,54.21-143.84C1954.94,97.94,1857.01,0,1736.64,0H1403.2v800.3
		l353.77,0.01c133.83,0,242.71-108.88,242.71-242.71C1999.68,480.7,1962.24,407.61,1900.73,362.16z M1524.92,314.9V121.72h211.72
		c53.27,0,96.6,43.33,96.6,96.6c0,53.25-43.33,96.58-96.6,96.58L1524.92,314.9L1524.92,314.9z M1877.97,557.61
		c0,66.72-54.28,121-121,121l-232.05-0.01V436.62h232.05C1823.69,436.62,1877.97,490.9,1877.97,557.61z"/>
	<path class="st0" d="M1201.63,625.13l95.17-98.3l-85.94-83.31l-206.07,212.7c-24.33,24.98-57,38.98-92.01,39.44
		c-0.59,0.01-1.17,0.01-1.76,0.01c-34.35,0-66.7-13.12-91.27-37.05c-25.04-24.4-39.08-57.08-39.53-92.02
		c-0.45-34.94,12.74-67.99,37.13-93.05l24.87-25.54l99.21,94.61l83.52-85.71l-168.9-161.02c-17.57-18.77-25.76-40.87-25.76-69.49
		c0-58.64,47.71-106.36,106.34-106.36h24.51V0.36h-24.51C812,0.36,710.61,101.76,710.61,226.4c0,52.76,15.57,98.99,46.32,137.66
		l-25.33,25.98c-46.71,47.94-71.94,111.2-71.06,178.12c0.86,66.92,27.74,129.5,75.69,176.2c46.95,45.76,109,70.96,174.78,70.96
		c68.29,0,132.08-26.87,179.63-75.7l27.67-28.54l95.87,89.6l82.6-86.62L1201.63,625.13z"/>
</g>
</svg>
